<?xml version="1.0" standalone="no"?>
<!DOCTYPE svg PUBLIC "-//W3C//DTD SVG 20010904//EN"
 "http://www.w3.org/TR/2001/REC-SVG-20010904/DTD/svg10.dtd">
<svg version="1.0" xmlns="http://www.w3.org/2000/svg"
 width="1000.000000pt" height="1000.000000pt" viewBox="0 0 1000.000000 1000.000000"
 preserveAspectRatio="xMidYMid meet">
<metadata>
Created by potrace 1.11, written by Peter Selinger 2001-2013
</metadata>
<g transform="translate(0.000000,1000.000000) scale(0.100000,-0.100000)"
fill="#000000" stroke="none">
<path d="M2799 7207 c-1210 -1210 -2201 -2204 -2202 -2209 -1 -4 989 -1000
2200 -2211 l2203 -2203 2202 2203 c1212 1212 2204 2205 2205 2206 2 2 -990
996 -2203 2209 l-2205 2205 -2200 -2200z m4273 -134 c1137 -1138 2068 -2073
2068 -2078 0 -6 -932 -942 -2070 -2080 l-2070 -2070 -2075 2075 -2074 2074
2072 2073 c1140 1140 2074 2073 2076 2073 3 0 935 -930 2073 -2067z"/>
<path d="M3838 5975 c-2 -2 -25 -5 -53 -8 -192 -21 -372 -86 -529 -192 -378
-254 -550 -692 -450 -1145 21 -96 69 -212 128 -310 197 -329 561 -530 961
-533 148 -1 210 6 345 38 168 41 305 100 458 198 l62 39 0 402 0 401 -157 0
-158 0 -2 -293 c0 -161 -3 -298 -6 -306 -13 -32 -244 -124 -362 -143 -82 -14
-248 -8 -325 12 -360 89 -599 389 -598 749 1 157 38 288 118 410 102 155 233
256 410 316 89 30 109 33 251 36 107 2 141 -2 219 -22 51 -13 120 -36 154 -51
69 -30 184 -101 224 -138 40 -37 30 -43 123 80 33 44 72 95 87 114 15 19 28
37 30 41 1 4 -18 22 -43 41 -25 19 -55 42 -67 51 -40 33 -243 128 -328 153
-76 23 -110 31 -215 51 -30 6 -272 13 -277 9z"/>
<path d="M5370 4885 l0 -1085 55 -1 c30 0 87 0 125 0 39 0 96 0 128 0 l58 1
-1 316 c0 174 3 321 6 326 5 7 110 11 307 12 l300 1 20 -30 c26 -39 96 -156
105 -175 4 -8 67 -113 141 -233 l134 -219 203 2 c112 0 204 2 205 3 2 2 -103
160 -380 571 -54 81 -97 148 -95 149 2 1 33 18 69 36 170 88 271 208 335 396
13 38 17 54 32 135 20 111 -5 376 -39 417 -6 7 -8 13 -4 13 3 0 -11 32 -31 71
-48 90 -147 194 -238 247 -77 45 -231 100 -303 109 -26 3 -66 9 -90 13 -23 4
-267 8 -542 9 l-500 2 0 -1086z m1063 738 c220 -45 334 -172 342 -382 4 -95
-7 -157 -40 -229 -25 -55 -115 -152 -141 -152 -8 0 -14 -4 -14 -9 0 -10 -116
-49 -174 -59 -23 -4 -183 -7 -356 -7 l-314 0 -1 420 c-1 231 1 423 3 427 6 14
621 6 695 -9z"/>
</g>
</svg>
